# xmcd
#
# Track frame offsets: 
#        150
#        17526
#        21750
#        23573
#        41920
#        71329
#        92049
#        150150
#        245906
#        262008
#        268600
#        270680
#        292100
#        294573
#        311240
#        330839
#
# Disc length: 4721 seconds
#
# Revision: 0
# Processed by: cddbd v1.5.2PL0 Copyright (c) Steve Scherf et al.
# Submitted via: ExactAudioCopy v0.95b3
#
DISCID=e1126f10
DTITLE=Jimi Hendrix  - In the Studio Reclamation 1967-1970 - Disc 03  
DTITLE=FLAC
DYEAR=1900
DGENRE=
TTITLE0=Drifting (try out)
TTITLE1=Keep On Groovin' Drifting (try out)
TTITLE2=Midnight Lightnin' (try out)
TTITLE3=Freedom (alternate take)
TTITLE4=Cherokee Mist-In From The Storm
TTITLE5=Valleys Of Neptune (instrumental)
TTITLE6=Lil Dog Of Mine-Heaven Has No Sorrow (session)
TTITLE7=Valleys Of Neptune (session)
TTITLE8=Improvisation-Drifting(try Out)
TTITLE9=Had To Cry Today
TTITLE10=Angel (intro instrumental #1)
TTITLE11=Angel (complete instrumental)
TTITLE12=Angel (intro instrumental #2)
TTITLE13=Drifting (alternate take)
TTITLE14=Angel (alternate version complete with vocals)
TTITLE15=Belly Button Window (instrumental)
EXTD=
EXTT0=
EXTT1=
EXTT2=
EXTT3=
EXTT4=
EXTT5=
EXTT6=
EXTT7=
EXTT8=
EXTT9=
EXTT10=
EXTT11=
EXTT12=
EXTT13=
EXTT14=
EXTT15=
PLAYORDER=
